<svg width="845" height="1024" viewBox="0 0 845 1024" fill="none" xmlns="http://www.w3.org/2000/svg">
<rect width="840" height="1024" fill="#282828"/>
<g opacity="0.5">
<path d="M2.05242 371.397C2.05242 371.397 16.7313 212.655 166.099 199.068C309.385 186.035 301.234 314.08 446.564 318.407C676.561 325.256 413.418 32.2036 641.973 46.2505C727.495 51.5067 835.309 97.9203 835.309 97.9203" stroke="#FEC107"/>
<path d="M5.02612 379.695C5.02612 379.695 19.6807 220.954 169.047 207.381C312.331 194.36 304.199 322.404 449.53 326.744C679.528 333.612 416.34 40.5377 644.898 54.6043C730.42 59.8678 838.242 106.291 838.242 106.291" stroke="#FEC107"/>
</g>
<g opacity="0.5">
<path d="M842.948 521.298C842.948 521.298 828.269 680.04 678.901 693.626C535.615 706.659 543.766 578.615 398.436 574.288C168.439 567.439 431.582 860.491 203.027 846.444C117.505 841.188 9.69063 794.774 9.69063 794.774" stroke="#FEC107"/>
<path d="M839.974 513C839.974 513 825.319 671.741 675.953 685.314C532.669 698.334 540.801 570.291 395.47 565.951C165.472 559.082 428.66 852.157 200.102 838.09C114.58 832.827 6.75819 786.404 6.75819 786.404" stroke="#FEC107"/>
</g>
<circle cx="667" cy="999" r="48.5" stroke="#DDDDDD"/>
<circle cx="661" cy="999" r="48.5" stroke="#DDDDDD"/>
<circle opacity="0.5" cx="586.5" cy="499.5" r="12.5" fill="#FFB94D"/>
</svg>
