<svg width="845" height="1024" viewBox="0 0 845 1024" fill="none" xmlns="http://www.w3.org/2000/svg">
<rect opacity="0.1" y="-2" width="840" height="1024" fill="#FEC107"/>
<g opacity="0.5">
<path d="M2.05242 369.397C2.05242 369.397 16.7313 210.654 166.099 197.068C309.385 184.035 301.234 312.08 446.564 316.407C676.561 323.256 413.418 30.2035 641.973 44.2505C727.495 49.5066 835.309 95.9203 835.309 95.9203" stroke="#FEC107"/>
<path d="M5.02618 377.695C5.02618 377.695 19.6807 218.954 169.047 205.381C312.331 192.36 304.199 320.404 449.53 324.744C679.528 331.612 416.34 38.5376 644.898 52.6042C730.421 57.8678 838.242 104.291 838.242 104.291" stroke="#FEC107"/>
</g>
<g opacity="0.5">
<path d="M842.948 519.298C842.948 519.298 828.269 678.04 678.901 691.626C535.615 704.659 543.766 576.615 398.436 572.287C168.439 565.439 431.582 858.491 203.027 844.444C117.505 839.188 9.69057 792.774 9.69057 792.774" stroke="#FEC107"/>
<path d="M839.974 511C839.974 511 825.319 669.741 675.953 683.314C532.669 696.335 540.801 568.291 395.47 563.951C165.472 557.082 428.66 850.157 200.102 836.091C114.579 830.827 6.75807 784.404 6.75807 784.404" stroke="#FEC107"/>
</g>
<circle cx="5" cy="70" r="48.5" stroke="#DDDDDD"/>
<circle cx="-1" cy="70" r="48.5" stroke="#DDDDDD"/>
<circle cx="667" cy="997" r="48.5" stroke="#DDDDDD"/>
<circle cx="661" cy="997" r="48.5" stroke="#DDDDDD"/>
<circle opacity="0.5" cx="586.5" cy="497.5" r="12.5" fill="#FFB94D"/>
<circle opacity="0.5" cx="40.5" cy="865.5" r="7.5" fill="#8AE7F6"/>
</svg>
