<svg width="20" height="20" viewBox="0 0 20 20" fill="none" xmlns="http://www.w3.org/2000/svg">
<path d="M13.15 1.66666H6.84996C3.69996 1.66666 2.91663 2.50832 2.91663 5.86666V15.25C2.91663 17.4667 4.13329 17.9917 5.60829 16.4083L5.61663 16.4C6.29996 15.675 7.34163 15.7333 7.93329 16.525L8.77496 17.65C9.44996 18.5417 10.5416 18.5417 11.2166 17.65L12.0583 16.525C12.6583 15.725 13.7 15.6667 14.3833 16.4C15.8666 17.9833 17.075 17.4583 17.075 15.2417V5.86666C17.0833 2.50832 16.3 1.66666 13.15 1.66666ZM12.5 9.79166H7.49996C7.15829 9.79166 6.87496 9.50832 6.87496 9.16666C6.87496 8.82499 7.15829 8.54166 7.49996 8.54166H12.5C12.8416 8.54166 13.125 8.82499 13.125 9.16666C13.125 9.50832 12.8416 9.79166 12.5 9.79166ZM13.3333 6.45832H6.66663C6.32496 6.45832 6.04163 6.17499 6.04163 5.83332C6.04163 5.49166 6.32496 5.20832 6.66663 5.20832H13.3333C13.675 5.20832 13.9583 5.49166 13.9583 5.83332C13.9583 6.17499 13.675 6.45832 13.3333 6.45832Z" fill="white"/>
</svg>
