<svg width="20" height="20" viewBox="0 0 20 20" fill="none" xmlns="http://www.w3.org/2000/svg">
<path d="M5.83329 1.66667H4.99996C2.49996 1.66667 1.66663 3.15834 1.66663 5.00001V5.83334V17.5C1.66663 18.1917 2.44996 18.5833 2.99996 18.1667L4.42496 17.1C4.75829 16.85 5.22496 16.8833 5.52496 17.1833L6.90829 18.575C7.23329 18.9 7.76663 18.9 8.09163 18.575L9.49163 17.175C9.78329 16.8833 10.25 16.85 10.575 17.1L12 18.1667C12.55 18.575 13.3333 18.1833 13.3333 17.5V3.33334C13.3333 2.41667 14.0833 1.66667 15 1.66667H5.83329ZM9.37496 11.4583H5.62496C5.28329 11.4583 4.99996 11.175 4.99996 10.8333C4.99996 10.4917 5.28329 10.2083 5.62496 10.2083H9.37496C9.71663 10.2083 9.99996 10.4917 9.99996 10.8333C9.99996 11.175 9.71663 11.4583 9.37496 11.4583ZM9.99996 8.12501H4.99996C4.65829 8.12501 4.37496 7.84167 4.37496 7.50001C4.37496 7.15834 4.65829 6.87501 4.99996 6.87501H9.99996C10.3416 6.87501 10.625 7.15834 10.625 7.50001C10.625 7.84167 10.3416 8.12501 9.99996 8.12501Z" fill="white"/>
<path d="M15.0084 1.66667V2.91667C15.5584 2.91667 16.0834 3.14167 16.4667 3.51667C16.8667 3.925 17.0834 4.45001 17.0834 5.00001V7.01667C17.0834 7.63334 16.8084 7.91667 16.1834 7.91667H14.5834V3.34167C14.5834 3.10834 14.775 2.91667 15.0084 2.91667V1.66667ZM15.0084 1.66667C14.0834 1.66667 13.3334 2.41667 13.3334 3.34167V9.16667H16.1834C17.5 9.16667 18.3334 8.33334 18.3334 7.01667V5.00001C18.3334 4.08334 17.9584 3.25001 17.3584 2.64167C16.75 2.04167 15.925 1.67501 15.0084 1.66667C15.0084 1.66667 15.0167 1.66667 15.0084 1.66667Z" fill="white"/>
</svg>
