<svg width="20" height="20" viewBox="0 0 20 20" fill="none" xmlns="http://www.w3.org/2000/svg">
<path d="M6.50003 18.4583C4.2917 18.4583 2.4917 16.6667 2.4917 14.45V12.0833C2.4917 11.525 3.0417 11.15 3.5667 11.3333C3.78337 11.4083 4.00003 11.4583 4.22503 11.4917C4.32503 11.5083 4.42503 11.525 4.52503 11.525C4.65003 11.5417 4.78337 11.55 4.90837 11.55C5.83337 11.55 6.75003 11.2083 7.47503 10.6167C8.1667 11.2083 9.05837 11.55 10.0084 11.55C10.9584 11.55 11.8417 11.225 12.5334 10.625C13.25 11.2083 14.15 11.55 15.0667 11.55C15.2084 11.55 15.3584 11.5417 15.4917 11.525C15.5917 11.5167 15.675 11.5083 15.7667 11.4917C16.0167 11.4583 16.2417 11.3917 16.4667 11.3167C16.9834 11.1417 17.525 11.525 17.525 12.0667V14.45C17.525 16.6583 15.7334 18.4583 13.5167 18.4583H6.50003Z" fill="white"/>
<path d="M18.3166 7.15832L18.0833 4.94166C17.75 2.52499 16.65 1.54166 14.3 1.54166H12.4166H11.2333H8.79996H7.60829H5.68329C3.33329 1.54166 2.24162 2.52499 1.89996 4.96666L1.68329 7.16666C1.59996 8.02499 1.83329 8.85832 2.34162 9.50832C2.94996 10.3 3.88329 10.75 4.92496 10.75C5.93329 10.75 6.89996 10.2417 7.50829 9.43332C8.04996 10.2417 8.98329 10.75 10.0166 10.75C11.05 10.75 11.9583 10.2667 12.5083 9.46666C13.125 10.2583 14.075 10.75 15.075 10.75C16.1416 10.75 17.1 10.275 17.7 9.44166C18.1833 8.79999 18.4 7.99166 18.3166 7.15832ZM11.25 6.44166H10.625V7.09166C10.625 7.44166 10.3416 7.71666 9.99996 7.71666C9.65829 7.71666 9.37496 7.44166 9.37496 7.09166V6.44166H8.74996C8.40829 6.44166 8.12496 6.16666 8.12496 5.81666C8.12496 5.47499 8.40829 5.19166 8.74996 5.19166H9.37496V4.59999C9.37496 4.25832 9.65829 3.97499 9.99996 3.97499C10.3416 3.97499 10.625 4.25832 10.625 4.59999V5.19166H11.25C11.5916 5.19166 11.875 5.47499 11.875 5.81666C11.875 6.16666 11.5916 6.44166 11.25 6.44166Z" fill="white"/>
</svg>
